<svg width="180" height="196" viewBox="0 0 180 196" fill="none" xmlns="http://www.w3.org/2000/svg">
<g clip-path="url(#clip0_54_8272)">
<path d="M16.3155 14.9641C16.3155 14.9641 76.611 -20.0695 135.015 17.018C193.419 54.1054 178.049 130.099 178.049 130.099C178.049 130.099 168.65 120.299 151.33 123.468C151.33 123.468 151.626 99.9952 126.089 102.166C126.089 102.166 113.261 72.5317 85.478 80.6886C85.478 80.6886 80.276 54.2228 46.7588 57.5677C46.6997 57.5677 39.2514 27.3461 16.3155 14.9641Z" fill="#8FA6E3"/>
<g opacity="0.4">
<g opacity="0.4">
<path opacity="0.4" d="M16.3155 14.9641C16.3155 14.9641 76.611 -20.0695 135.015 17.018C193.419 54.1054 178.049 130.099 178.049 130.099C178.049 130.099 168.65 120.299 151.33 123.468C151.33 123.468 151.626 99.9952 126.089 102.166C126.089 102.166 113.261 72.5317 85.478 80.6886C85.478 80.6886 80.276 54.2228 46.7588 57.5677C46.6997 57.5677 39.2514 27.3461 16.3155 14.9641Z" fill="black"/>
</g>
</g>
<path d="M128.749 117.717C129.34 112.964 126.503 107.976 122.069 106.098C118.818 104.749 114.739 104.749 112.552 101.99C110.128 98.9976 111.37 94.2443 109.242 91.0168C106.818 87.3198 100.907 87.085 98.6012 83.388C96.8278 80.5713 97.7145 76.7569 96.1185 73.8228C94.4633 70.7713 90.6209 69.5976 88.3746 66.9569C85.8919 64.0228 85.2416 59.3281 81.7539 57.7437C79.7441 56.8048 77.3204 57.2743 75.4288 58.3892C73.5372 59.5042 72.0593 61.1473 70.5815 62.8491C64.7293 69.4802 58.8771 76.0527 53.084 82.6838C52.6111 83.212 52.0791 83.7988 51.9017 84.503C51.3106 86.4395 53.084 88.2 54.5027 89.6671C57.9904 93.3054 60.1776 98.1174 60.6505 103.105C60.9461 106.216 60.7687 109.913 63.1923 111.908C65.084 113.434 68.0396 113.375 69.6948 115.194C72.0593 117.776 70.1677 121.943 70.7589 125.405C71.35 128.632 74.1874 130.98 77.1431 132.447C80.0988 133.914 83.35 134.794 86.0692 136.613C88.7884 138.432 91.0347 141.66 90.3254 144.829C96.2367 142.012 101.675 138.256 106.404 133.796C104.985 131.743 103.567 129.747 102.207 127.693C104.69 129.219 107.173 130.804 109.715 132.329C110.719 130.569 112.67 129.689 114.325 128.574C115.981 127.4 117.458 125.463 116.749 123.586C115.921 121.297 112.434 120.593 112.138 118.246C115.389 119.008 118.345 120.886 120.414 123.468C123.606 122.177 126.976 120.828 128.749 117.717Z" fill="#263238"/>
<path d="M77.5567 105.687C83.4089 101.11 88.4336 102.636 93.9902 103.986C99.4878 105.335 103.921 110.499 107.882 114.549C111.842 118.598 115.33 123.057 119.586 126.813C123.842 130.51 129.104 133.444 134.778 133.562C138.975 133.62 143.113 132.095 147.251 132.681C151.33 133.268 155.054 136.026 156.769 139.723C155.172 143.596 153.576 147.411 152.039 151.284C150.089 146.413 144.177 144.477 138.916 144.359C133.655 144.242 128.335 145.416 123.192 144.359C116.985 143.068 111.961 138.726 107.645 134.149C103.33 129.571 99.4286 124.466 94.1676 121.004C88.9065 117.483 81.872 115.84 76.2562 118.774" fill="#8FA6E3"/>
<g opacity="0.4">
<g opacity="0.4">
<path opacity="0.4" d="M77.5567 105.687C83.4089 101.11 88.4336 102.636 93.9902 103.986C99.4878 105.335 103.921 110.499 107.882 114.549C111.842 118.598 115.33 123.057 119.586 126.813C123.842 130.51 129.104 133.444 134.778 133.562C138.975 133.62 143.113 132.095 147.251 132.681C151.33 133.268 155.054 136.026 156.769 139.723C155.172 143.596 153.576 147.411 152.039 151.284C150.089 146.413 144.177 144.477 138.916 144.359C133.655 144.242 128.335 145.416 123.192 144.359C116.985 143.068 111.961 138.726 107.645 134.149C103.33 129.571 99.4286 124.466 94.1676 121.004C88.9065 117.483 81.872 115.84 76.2562 118.774" fill="black"/>
</g>
</g>
<path d="M146.542 146.002C146.601 146.002 146.897 145.357 147.37 144.242C147.843 143.127 148.375 141.601 148.966 139.899C149.498 138.198 149.912 136.554 150.207 135.44C150.444 134.266 150.562 133.562 150.562 133.562C150.503 133.562 150.325 134.266 150.03 135.381C149.734 136.496 149.261 138.08 148.729 139.841C148.197 141.543 147.665 143.127 147.251 144.242C146.719 145.298 146.483 146.002 146.542 146.002Z" fill="#F26E11"/>
<path d="M136.788 144.066C136.847 144.066 137.084 143.479 137.438 142.54C137.793 141.543 138.266 140.193 138.68 138.667C139.094 137.141 139.448 135.733 139.626 134.735C139.803 133.738 139.921 133.092 139.862 133.092C139.803 133.092 139.685 133.679 139.389 134.735C139.153 135.733 138.798 137.141 138.384 138.667C137.97 140.193 137.498 141.543 137.202 142.54C136.906 143.42 136.729 144.066 136.788 144.066Z" fill="#F26E11"/>
<path d="M126.266 144.887C126.325 144.946 127.389 142.305 128.631 139.078C129.872 135.85 130.818 133.151 130.699 133.151C130.64 133.092 129.576 135.733 128.335 138.96C127.153 142.188 126.207 144.829 126.266 144.887Z" fill="#F26E11"/>
<path d="M118.522 141.836C118.581 141.836 118.877 141.19 119.291 140.017C119.704 138.902 120.296 137.317 120.887 135.557C121.478 133.796 121.951 132.212 122.246 131.038C122.542 129.865 122.719 129.16 122.66 129.16C122.601 129.16 122.364 129.865 122.01 130.98C121.596 132.212 121.123 133.738 120.591 135.44C120 137.141 119.527 138.667 119.113 139.899C118.759 141.132 118.522 141.836 118.522 141.836Z" fill="#F26E11"/>
<path d="M111.665 137.376C111.724 137.376 112.847 134.383 114.148 130.569C115.448 126.813 116.394 123.703 116.335 123.703C116.276 123.703 115.153 126.696 113.852 130.51C112.552 134.266 111.606 137.376 111.665 137.376Z" fill="#F26E11"/>
<path d="M107.646 123.82C107.705 123.879 108.414 122.353 109.242 120.475C110.01 118.598 110.601 117.072 110.542 117.013C110.483 116.954 109.774 118.48 108.946 120.358C108.118 122.236 107.527 123.762 107.646 123.82Z" fill="#F26E11"/>
<path d="M101.084 115.077C101.143 115.135 101.793 114.079 102.502 112.788C103.212 111.497 103.685 110.382 103.626 110.323C103.567 110.265 102.916 111.321 102.207 112.612C101.498 113.962 101.025 115.077 101.084 115.077Z" fill="#F26E11"/>
<path d="M92.0395 109.678C92.0986 109.678 92.6306 108.504 93.2217 107.037C93.8129 105.57 94.3449 104.396 94.2858 104.338C94.2267 104.279 93.5764 105.453 92.9262 106.92C92.2759 108.387 91.9212 109.619 92.0395 109.678Z" fill="#F26E11"/>
<path d="M83.5271 107.448C83.5862 107.448 83.7635 106.392 83.7044 105.042C83.6453 103.692 83.3497 102.636 83.2315 102.695C83.1724 102.695 83.2906 103.751 83.3497 105.101C83.468 106.392 83.4088 107.448 83.5271 107.448Z" fill="#F26E11"/>
<path d="M90.4433 162.962L99.2512 113.668C90.9162 106.861 81.931 107.331 81.931 107.331L52.9064 107.565C52.9064 107.565 51.0739 107.683 48.3547 108.504C44.8079 108.739 38.1281 110.089 33.1034 118.304C27.7832 127.048 20.0394 144.946 20.0394 144.946L18.3842 124.877L5.43842 120.945C-5.3202 149.406 1.59605 170.943 13.4778 172.703C23.3497 174.17 32.9261 162.257 32.9261 162.257L37.7143 154.101L38.7783 159.499L41.6158 172.938L31.2709 195.941C34.8768 195.941 37.3005 196.117 41.7931 195.941H97.1823C96.7685 191.775 91.4483 186.552 91.4483 186.552C87.665 180.097 88.6699 170.356 90.4433 162.962Z" fill="#F26E11"/>
<path d="M37.4778 189.838C37.4778 189.838 37.5961 189.78 37.8325 189.604C38.0098 189.428 38.3645 189.193 38.7783 188.841C39.665 188.254 41.0246 187.491 42.798 186.963C44.6305 186.435 46.8768 186.2 49.3596 186.259C51.8424 186.376 54.5616 186.846 57.4581 187.315C60.2956 187.784 63.0739 188.254 65.6158 188.195C68.1576 188.195 70.4039 187.726 72.1773 187.022C73.9507 186.317 75.2512 185.437 76.0197 184.733C76.4335 184.381 76.67 184.087 76.8473 183.853C77.0246 183.618 77.1429 183.501 77.0837 183.501C77.0837 183.501 76.9655 183.618 76.7882 183.794C76.6108 184.029 76.3153 184.263 75.9015 184.616C75.133 185.32 73.8325 186.141 72.0591 186.787C70.2857 187.432 68.0394 187.843 65.5566 187.843C63.0739 187.843 60.3547 187.432 57.4581 186.963C54.6207 186.493 51.9015 185.965 49.3596 185.907C46.8177 185.848 44.5714 186.141 42.7389 186.669C40.9064 187.198 39.5468 188.019 38.7192 188.665C38.3054 189.017 38.0098 189.251 37.7734 189.428C37.5369 189.721 37.4778 189.838 37.4778 189.838Z" fill="#F26E11"/>
<path d="M19.6846 153.983C19.8619 153.983 20.0984 151.812 20.1575 149.171C20.2166 146.472 20.1575 144.301 19.9802 144.301C19.8028 144.301 19.5664 146.472 19.5073 149.113C19.4482 151.812 19.5073 153.983 19.6846 153.983Z" fill="#263238"/>
<g opacity="0.2">
<g opacity="0.2">
<g opacity="0.2">
<path opacity="0.2" d="M93.1626 188.371C93.399 188.43 94.5813 190.132 94.2266 190.895C93.9311 191.657 93.0444 192.068 92.2168 192.068C91.3892 192.127 90.6207 191.834 89.7931 191.599C80.5123 188.489 71.2907 185.32 62.0099 182.21C57.7537 180.801 53.5567 179.334 49.3005 177.926C47.8227 177.456 46.1675 176.693 45.8719 175.226C45.7537 174.757 45.8719 174.229 45.6946 173.818C45.4581 173.114 44.6897 172.644 43.9803 172.41C43.271 172.175 42.5025 171.999 41.8522 171.529C41.2611 171.06 40.7882 169.593 41.202 168.947C41.1429 169.065 45.8128 169.593 48.1182 170.766C47.9409 171.705 47.3498 174.053 47.3498 174.053C47.3498 174.053 49.8325 174.698 50.7192 175.05C65.4976 180.86 78.4434 183.383 93.1626 188.371Z" fill="black"/>
</g>
</g>
</g>
<path d="M18.4434 85.8527L38.3054 117.776L22.6995 122.119L5.37931 95.594L18.4434 85.8527Z" fill="#E9EEFA"/>
<path d="M19.6849 113.081L19.0346 117.776L16.2563 121.297L15.9607 124.172L6.02971 121.18L10.0494 107.096C10.0494 107.096 9.39915 102.988 9.63561 101.345L12.3548 104.925L13.1233 99.0563L18.7391 94.5964C19.3302 94.1269 20.2169 94.303 20.6307 94.8898C21.0445 95.418 20.9854 96.1808 20.4533 96.6503L15.9607 100.582L15.6652 105.453L18.9164 102.46C19.212 102.166 19.6258 101.932 20.0395 101.873L24.5913 100.993C25.3006 100.875 25.9509 101.345 26.01 102.049C26.0691 102.577 25.7144 103.105 25.1824 103.281L21.0445 104.514L16.8474 108.68L20.9262 107.154L26.4829 107.917C27.0149 107.976 27.4287 108.446 27.4287 108.974C27.4287 109.56 26.8967 110.089 26.3056 110.03L22.7588 109.854L20.6898 110.499L25.478 111.732C25.8918 111.849 26.1873 112.26 26.1873 112.729C26.1873 113.257 25.7144 113.668 25.1233 113.61L19.6849 113.081Z" fill="#FFBE9D"/>
<path d="M38.3055 117.776C38.3055 117.776 39.6651 115.957 39.5469 115.663C39.4287 115.37 20.6898 84.679 20.6898 84.679L18.5026 85.8527L38.3055 117.776Z" fill="#263238"/>
<path d="M13.4778 93.8922C13.1232 93.5401 12.4729 93.7162 12.3547 94.1856C12.2365 94.6551 12.7094 95.1246 13.1823 95.0659C13.5961 94.9485 13.8325 94.303 13.4778 93.8922Z" fill="#263238"/>
<path d="M93.6946 110.323C93.6946 110.323 108.473 114.783 111.665 136.731C112.788 144.301 114.148 161.788 114.621 174.757C114.916 183.266 111.724 188.078 106.581 189.838C103.862 190.777 100.906 190.66 98.1281 189.838L47.5271 174.229L51.9015 153.162L89.9705 163.314L89.0247 147.704L93.6946 110.323Z" fill="#F26E11"/>
<path d="M96.9458 171.353C96.9458 171.353 96.8276 170.356 95.9409 168.713C94.9951 167.128 93.1625 164.957 90.0886 163.255C81.5172 161.084 68.0985 157.739 52.4926 153.866L52.197 153.807L52.1379 154.101C51.133 158.384 50.0689 162.844 48.9458 167.48C48.4138 169.71 47.9409 171.881 47.4088 173.935L47.3497 174.229L47.6453 174.346C62.8374 179.334 76.4335 183.559 86.1872 186.493C91.0936 187.96 94.9951 189.075 97.7734 189.838C99.0739 190.19 100.138 190.484 100.906 190.66C101.261 190.719 101.498 190.777 101.734 190.836C101.911 190.895 102.03 190.895 102.03 190.895C102.03 190.895 101.97 190.836 101.734 190.777C101.498 190.719 101.261 190.601 100.906 190.543C100.138 190.308 99.133 190.014 97.7734 189.604C94.9951 188.723 91.0936 187.55 86.2463 186.024C76.4926 182.972 62.9557 178.63 47.7635 173.642L48 174.053C48.4729 171.999 49.0049 169.828 49.5369 167.598C50.601 162.962 51.665 158.502 52.6699 154.218L52.2561 154.453C67.9212 158.267 81.3399 161.495 89.9113 163.607H89.8522C92.867 165.25 94.7586 167.304 95.7044 168.83C96.7093 170.356 96.8867 171.353 96.9458 171.353Z" fill="#263238"/>
<path d="M90.0295 144.359C89.8522 144.359 89.8522 148.702 90.0295 154.042C90.2068 159.382 90.5024 163.725 90.6797 163.725C90.8571 163.725 90.8571 159.382 90.6797 154.042C90.5024 148.643 90.2068 144.301 90.0295 144.359Z" fill="#263238"/>
<path d="M25.4781 133.327C25.4781 133.327 25.8328 133.268 26.4239 133.268C27.0742 133.268 28.02 133.444 29.084 133.972C30.148 134.501 31.3303 135.44 32.5717 136.613C33.1628 137.2 33.8722 137.846 34.5815 138.491C35.35 139.137 36.2367 139.723 37.2416 140.134C39.3106 140.956 41.7934 140.956 44.3352 140.545C46.8771 140.134 49.4781 139.195 52.2564 138.667C53.6751 138.432 55.153 138.256 56.6308 138.374C58.1086 138.491 59.5865 138.96 60.9461 139.723C63.6653 141.19 66.0298 143.479 68.749 145.357C70.1086 146.296 71.5865 147.059 73.1825 147.528C74.7195 147.998 76.3746 148.174 77.9707 148.115C79.5668 148.056 81.1037 147.704 82.5224 147.176C83.9411 146.648 85.2416 145.885 86.4239 145.063C88.7884 143.42 90.7983 141.543 92.8673 140.134C94.9362 138.667 97.1234 137.669 99.2515 137.317C101.38 136.965 103.389 137.083 105.045 137.493C106.7 137.904 108.059 138.491 109.123 139.078C111.251 140.31 112.079 141.366 112.138 141.308C112.138 141.308 112.079 141.249 111.961 141.132C111.843 141.014 111.665 140.838 111.429 140.604C111.192 140.369 110.897 140.134 110.542 139.841C110.128 139.547 109.715 139.254 109.183 138.96C108.118 138.315 106.759 137.728 105.104 137.317C103.449 136.907 101.439 136.731 99.2515 137.083C98.1874 137.259 97.0643 137.611 95.9411 138.08C94.818 138.55 93.754 139.195 92.6899 139.899C90.5618 141.366 88.552 143.186 86.1874 144.829C85.0052 145.65 83.7638 146.413 82.3451 146.941C80.9855 147.469 79.4485 147.822 77.9116 147.822C76.3746 147.88 74.7786 147.704 73.2416 147.235C71.7047 146.765 70.286 146.002 68.9264 145.122C66.2072 143.244 63.9017 140.956 61.0643 139.489C59.7047 138.726 58.1677 138.256 56.6308 138.139C55.0939 138.022 53.616 138.139 52.1973 138.432C49.3599 138.96 46.7589 139.899 44.2761 140.31C41.7934 140.78 39.3106 140.721 37.3008 139.958C35.2909 139.195 33.9313 137.669 32.6308 136.554C31.3894 135.381 30.2072 134.442 29.084 133.914C27.9608 133.386 27.015 133.21 26.3648 133.268C25.7737 133.21 25.4781 133.327 25.4781 133.327Z" fill="#F26E11"/>
<path d="M33.0445 119.243C33.0445 119.243 33.1036 119.302 33.1627 119.419C33.2809 119.537 33.3992 119.713 33.5765 119.889C33.9312 120.299 34.5223 120.828 35.3499 121.356C36.1775 121.884 37.3006 122.471 38.6602 122.881C40.0199 123.234 41.7341 123.41 43.5075 123.116C45.2809 122.823 47.1726 122.236 49.2415 121.943C51.3105 121.59 53.5568 122.06 55.6258 123.175C57.6947 124.29 59.5864 125.874 61.7144 127.4C62.7785 128.163 63.8425 128.867 65.0839 129.454C66.2662 130.041 67.5667 130.51 68.9263 130.804C71.6455 131.39 74.3647 131.332 76.9066 130.745C79.4484 130.099 81.6947 128.984 83.7637 127.811C85.8327 126.637 87.6652 125.346 89.4977 124.29C91.2711 123.175 92.9854 122.295 94.6405 121.59C97.9509 120.241 100.907 120.065 102.916 120.417C103.921 120.593 104.631 120.769 105.163 121.004C105.399 121.062 105.577 121.18 105.695 121.238C105.813 121.297 105.872 121.297 105.872 121.297C105.872 121.297 105.813 121.238 105.695 121.18C105.577 121.121 105.399 121.004 105.163 120.945C104.69 120.769 103.921 120.475 102.916 120.299C100.966 119.947 97.8918 120.065 94.5814 121.414C92.9263 122.06 91.1529 122.999 89.3795 124.055C87.5469 125.111 85.7144 126.402 83.6455 127.576C81.6356 128.75 79.3893 129.865 76.9066 130.452C74.4238 131.097 71.7046 131.097 69.0445 130.51C67.744 130.217 66.4435 129.747 65.2612 129.219C64.079 128.632 63.0149 127.928 61.9509 127.165C59.8819 125.698 57.9312 124.055 55.8622 122.94C54.7982 122.353 53.7341 121.943 52.611 121.766C52.079 121.649 51.4878 121.59 50.9558 121.59C50.4238 121.59 49.8918 121.649 49.3598 121.708C47.2317 122.001 45.3992 122.647 43.6258 122.94C41.8524 123.234 40.2563 123.116 38.8967 122.764C37.5371 122.412 36.4139 121.825 35.5864 121.297C34.7588 120.769 34.1676 120.241 33.813 119.889C33.6356 119.713 33.5174 119.537 33.3992 119.478C33.1036 119.302 33.0445 119.243 33.0445 119.243Z" fill="#F26E11"/>
<path d="M90.6209 159.969C90.6209 160.028 91.9213 159.382 94.1676 158.795C94.4632 158.737 94.7588 158.678 95.0543 158.56C95.3499 158.502 95.7046 158.443 96.0002 158.384C96.6504 158.267 97.4189 158.208 98.1282 158.15C99.6652 158.091 101.32 158.091 103.094 158.326C104.808 158.619 106.463 159.03 107.882 159.558C108.591 159.851 109.242 160.086 109.892 160.438C110.187 160.614 110.483 160.732 110.778 160.849C111.074 161.025 111.311 161.143 111.547 161.319C113.498 162.492 114.562 163.49 114.621 163.431C114.621 163.431 114.384 163.196 113.911 162.727C113.675 162.492 113.379 162.257 112.966 161.964C112.611 161.671 112.197 161.377 111.665 161.084C111.429 160.908 111.133 160.79 110.897 160.614C110.601 160.438 110.306 160.321 110.01 160.145C109.419 159.793 108.71 159.558 108 159.265C106.581 158.737 104.926 158.267 103.153 157.974C101.379 157.739 99.6652 157.68 98.1282 157.798C97.3598 157.856 96.6504 157.915 95.941 158.091C95.5864 158.15 95.2908 158.208 94.9952 158.267C94.6997 158.326 94.4041 158.443 94.1085 158.502C93.5174 158.619 93.0445 158.854 92.6307 158.971C92.2169 159.089 91.8031 159.265 91.5076 159.382C90.9755 159.793 90.6209 159.969 90.6209 159.969Z" fill="#F26E11"/>
<path d="M76.7884 160.438C76.7884 160.438 77.1431 160.673 77.5569 161.319C78.0298 161.964 78.4436 162.962 78.5618 164.37C78.7391 165.72 78.5027 167.363 78.5618 169.182C78.5618 170.121 78.68 171.06 79.0347 172.057C79.3894 172.996 79.9805 173.877 80.6308 174.698C81.9904 176.341 83.6455 177.574 84.946 178.806C86.3056 180.038 87.3697 181.271 87.9017 182.562C88.4928 183.794 88.6111 184.909 88.6111 185.672C88.5519 186.435 88.4337 186.846 88.4337 186.846C88.4337 186.846 88.4928 186.728 88.5519 186.552C88.6111 186.376 88.6702 186.083 88.7293 185.672C88.7884 184.909 88.6702 183.735 88.079 182.444C87.547 181.153 86.4239 179.862 85.1234 178.571C83.7638 177.28 82.1677 176.107 80.8672 174.463C80.217 173.642 79.6849 172.82 79.3303 171.881C78.9756 171.001 78.8574 170.004 78.8574 169.123C78.7982 167.304 79.0347 165.661 78.7982 164.253C78.6209 162.844 78.148 161.788 77.6751 161.201C77.2022 160.614 76.7884 160.438 76.7884 160.438Z" fill="#F26E11"/>
<path d="M53.675 175.578C53.675 175.578 53.7341 175.285 53.7932 174.757C53.8523 174.229 54.0888 173.466 54.5617 172.703C55.0346 171.881 55.7439 171.001 56.5715 170.062C57.3991 169.123 58.404 168.126 59.2316 166.893C61.005 164.487 61.7144 161.847 61.9508 159.969C62.0691 159.03 62.1282 158.267 62.1282 157.68C62.1282 157.152 62.1282 156.859 62.1282 156.859C62.1282 156.859 62.0691 157.152 62.0099 157.68C61.9508 158.208 61.8917 158.971 61.7144 159.91C61.4188 161.788 60.7095 164.37 58.9952 166.717C58.1085 167.891 57.1627 168.889 56.3351 169.828C55.5075 170.766 54.7981 171.705 54.3252 172.527C53.8523 173.349 53.675 174.17 53.6159 174.698C53.6159 174.992 53.6159 175.168 53.6159 175.344C53.675 175.52 53.675 175.578 53.675 175.578Z" fill="#F26E11"/>
<path d="M20.9855 148.232C20.9855 148.232 21.0446 148.408 21.1037 148.76C21.1628 148.937 21.222 149.171 21.3402 149.406C21.4584 149.641 21.5175 149.934 21.6949 150.228C21.9904 150.814 22.4042 151.46 22.8771 152.164C23.4091 152.868 24.0594 153.572 24.8279 154.218C25.5963 154.863 26.3648 155.392 27.1333 155.861C27.9017 156.272 28.6111 156.624 29.2614 156.8C29.9116 157.035 30.3845 157.152 30.7392 157.211C31.0939 157.269 31.3303 157.328 31.3303 157.269C31.3303 157.211 30.5619 157.035 29.3205 156.624C28.7293 156.389 28.02 156.037 27.2515 155.626C26.5421 155.216 25.7737 154.629 25.0052 153.983C24.2958 153.338 23.6456 152.634 23.1136 151.988C22.5816 151.284 22.1678 150.697 21.8722 150.11C21.2811 148.995 20.9855 148.232 20.9855 148.232Z" fill="#F26E11"/>
<path d="M0.000123978 149.289C0.0592384 149.347 0.768591 148.291 2.24642 146.883C2.95578 146.178 3.9016 145.416 5.02476 144.653C6.14791 143.89 7.4484 143.244 8.92624 142.657C11.0543 141.836 13.1824 141.484 14.9558 141.366C16.7292 141.249 18.1479 141.484 19.0346 141.601H19.1528L19.0937 141.484C18.739 140.956 18.5026 140.721 18.5026 140.721C18.5026 140.721 18.6799 141.014 18.9755 141.543L19.0346 141.425C18.1479 141.249 16.7292 141.014 14.9558 141.073C13.1233 141.132 10.9952 141.484 8.808 142.305C7.33017 142.892 5.97058 143.538 4.84742 144.301C3.72427 145.063 2.77845 145.826 2.06909 146.589C1.71441 146.941 1.41884 147.293 1.12327 147.587C1.00505 147.763 0.886816 147.88 0.768591 147.998C0.650364 148.115 0.591249 148.291 0.473024 148.408C0.118343 148.995 -0.0589886 149.289 0.000123978 149.289Z" fill="#F26E11"/>
<path d="M48.1182 55.5138C48.2956 57.8611 46.6995 59.9737 45.1035 61.7928C43.5074 63.5533 41.734 65.4311 41.3793 67.7785C40.7882 71.9449 44.867 75.818 44.0394 79.9258C43.5665 82.1557 41.734 83.9162 41.4384 86.1461C41.1429 88.3174 42.266 90.4299 43.7438 92.0731C45.1626 93.7162 46.936 95.0659 48.2365 96.885C49.5961 98.7629 50.3054 100.993 51.3103 103.047C52.2562 105.159 53.5567 107.213 55.6256 108.328C58.6995 109.971 62.9557 109.208 65.3202 111.732C67.5665 114.196 66.8571 118.715 69.6946 120.593" fill="#263238"/>
<path d="M84.7684 59.0934C84.8275 56.9222 82.8177 55.2791 80.8078 54.5162C78.798 53.7533 76.5517 53.4599 74.7783 52.2276C73.1822 51.1713 72.1182 49.5282 70.7586 48.1785C67.4482 44.8335 62.3054 43.4838 57.7536 44.7162C53.2019 45.9485 49.4778 49.7042 48.3546 54.2814C47.5862 57.3329 48.1182 60.9713 50.5418 62.9665C53.3793 65.3138 57.5172 64.7856 61.1822 64.0814C64.7881 63.3186 68.8669 62.6144 71.8817 64.727C73.7142 66.018 74.7192 68.0719 75.8423 69.9497C76.9655 71.8862 78.3251 73.8228 80.4532 74.527C82.5812 75.2311 85.4187 73.9988 85.4778 71.7689" fill="#263238"/>
<path d="M76.2561 59.5629C78.1477 59.7389 79.5073 61.3234 79.5073 63.2012L77.3201 111.732C77.2019 117.483 68.8669 117.893 62.7191 117.717V117.131C56.4531 117.013 56.1576 117.365 56.0985 111.908C55.9802 102.812 55.9802 99.3497 55.9802 99.4084C55.9802 99.4084 48.1182 98.1174 46.463 87.8479C45.6354 82.7425 45.931 74.4096 46.4039 67.6024C46.8177 61.4994 50.8965 53.9293 57.0443 54.6335L76.2561 59.5629Z" fill="#FFBE9D"/>
<path d="M48.2955 73.5293C48.2955 74.2335 48.8275 74.8204 49.5369 74.879C50.2462 74.9377 50.8965 74.4096 50.8965 73.7054C50.8965 73.0012 50.3645 72.4144 49.6551 72.3557C48.9457 72.297 48.3546 72.8252 48.2955 73.5293Z" fill="#263238"/>
<path d="M48.1773 72.0036C48.3547 72.1796 49.3596 71.4168 50.7783 71.4755C52.197 71.4755 53.2611 72.1796 53.3793 72.0036C53.4384 71.9449 53.2611 71.5928 52.8473 71.2994C52.3744 70.9473 51.665 70.6539 50.7783 70.6539C49.8916 70.6539 49.1231 71.006 48.7093 71.2994C48.2364 71.6515 48.1182 71.9449 48.1773 72.0036Z" fill="#263238"/>
<path d="M62.4827 73.8814C62.4827 74.5856 63.0148 75.1725 63.7241 75.2311C64.4335 75.2898 65.0837 74.7617 65.0837 74.0575C65.0837 73.3533 64.5517 72.7665 63.8424 72.7078C63.0739 72.6491 62.4827 73.1773 62.4827 73.8814Z" fill="#263238"/>
<path d="M62.128 72.297C62.3053 72.4731 63.3102 71.7102 64.729 71.7689C66.1477 71.7689 67.2117 72.4731 67.3299 72.297C67.3891 72.2383 67.2708 71.8862 66.7979 71.5928C66.325 71.2407 65.6157 70.9473 64.729 70.9473C63.8423 70.9473 63.0738 71.2994 62.66 71.5928C62.1871 71.9449 62.0689 72.2383 62.128 72.297Z" fill="#263238"/>
<path d="M56.9851 82.7425C56.9851 82.6838 56.0984 82.5078 54.6797 82.3317C54.325 82.2731 53.9703 82.2144 53.9112 81.9796C53.8521 81.7449 53.9703 81.3341 54.1477 80.9234C54.5024 80.0431 54.857 79.1629 55.2117 78.1653C56.6895 74.2922 57.8127 71.0647 57.6354 71.006C57.458 70.9473 56.1575 74.0575 54.6206 77.9892C54.2659 78.9282 53.9112 79.8671 53.6157 80.7473C53.4974 81.1581 53.261 81.6276 53.4383 82.1557C53.5565 82.4491 53.793 82.6252 54.0294 82.6838C54.2659 82.7425 54.4432 82.7425 54.6206 82.7425C56.0393 82.8599 56.9851 82.8599 56.9851 82.7425Z" fill="#263238"/>
<path d="M55.9212 99.4671C55.9212 99.4671 62.8374 99.9365 69.6946 95.8288C69.6946 95.8288 66.3251 102.871 56.0394 101.873L55.9212 99.4671Z" fill="#EB996E"/>
<path d="M57.5762 86.1461C58.1082 85.5006 58.9949 85.0898 59.8816 85.2072C60.4728 85.2659 61.123 85.5593 61.4777 86.0874C61.8324 86.6156 61.9506 87.3198 61.5959 87.7892C61.1821 88.3174 60.4136 88.4347 59.7043 88.2587C59.054 88.0826 58.4629 87.6132 57.8718 87.2024C57.6944 87.085 57.5762 86.9677 57.458 86.7916C57.3397 86.6156 57.3397 86.3808 57.458 86.2635" fill="#EB996E"/>
<path d="M61.1231 83.7401C60.8867 83.7401 60.8867 85.2659 59.5862 86.3222C58.2857 87.4371 56.6305 87.2611 56.6305 87.4371C56.6305 87.5545 56.9852 87.7305 57.6946 87.7305C58.4039 87.7305 59.3497 87.5545 60.1773 86.8503C61.0049 86.2048 61.3596 85.3246 61.3596 84.679C61.4187 84.1509 61.2414 83.7401 61.1231 83.7401Z" fill="#263238"/>
<path d="M61.5368 69.8323C61.655 70.2431 63.0737 70.0084 64.788 70.2431C66.4432 70.4192 67.8028 70.8886 68.0393 70.5365C68.1575 70.3605 67.921 70.0084 67.389 69.6563C66.857 69.3042 65.9703 68.9521 64.9654 68.8347C63.9604 68.7174 63.0737 68.8934 62.4235 69.1281C61.7732 69.3629 61.4777 69.6563 61.5368 69.8323Z" fill="#263238"/>
<path d="M48.7093 67.9545C48.9457 68.2479 49.9507 67.9545 51.1329 67.9545C52.3152 67.8958 53.3201 68.1892 53.5566 67.8371C53.6748 67.6611 53.4975 67.3677 53.0837 67.0743C52.6699 66.7808 51.9605 66.5461 51.1329 66.5461C50.3053 66.5461 49.596 66.8395 49.2413 67.1916C48.7093 67.4264 48.5911 67.7784 48.7093 67.9545Z" fill="#263238"/>
<path d="M83.2906 108.446C83.3497 105.863 83.4088 103.223 82.4039 100.817C81.3398 98.4695 78.9162 96.4156 76.197 96.5916C74.2462 96.709 72.5911 97.824 70.8177 98.6455C67.862 99.9952 64.4925 100.465 61.3004 99.9952C59.9408 99.8192 58.6403 99.4084 57.2807 99.4084C55.9211 99.3497 54.4433 99.7605 53.5566 100.699C52.4926 101.873 52.5517 103.575 52.6699 105.101C52.8472 107.507 53.0246 109.913 53.793 112.143C54.5615 114.431 55.9802 116.544 58.1674 117.835C61.1822 119.595 65.0837 119.302 68.6896 118.832C72.0591 118.422 75.4876 117.835 78.4433 116.25C81.399 114.607 83.7044 111.673 83.527 108.504" fill="#8FA6E3"/>
<g opacity="0.4">
<g opacity="0.4">
<path opacity="0.4" d="M83.2906 108.446C83.3497 105.863 83.4088 103.223 82.4039 100.817C81.3398 98.4695 78.9162 96.4156 76.197 96.5916C74.2462 96.709 72.5911 97.824 70.8177 98.6455C67.862 99.9952 64.4925 100.465 61.3004 99.9952C59.9408 99.8192 58.6403 99.4084 57.2807 99.4084C55.9211 99.3497 54.4433 99.7605 53.5566 100.699C52.4926 101.873 52.5517 103.575 52.6699 105.101C52.8472 107.507 53.0246 109.913 53.793 112.143C54.5615 114.431 55.9802 116.544 58.1674 117.835C61.1822 119.595 65.0837 119.302 68.6896 118.832C72.0591 118.422 75.4876 117.835 78.4433 116.25C81.399 114.607 83.7044 111.673 83.527 108.504" fill="black"/>
</g>
</g>
<path d="M76.4333 117.013C76.4333 117.013 76.4924 117.013 76.6107 116.896C76.7289 116.837 76.9062 116.661 77.0836 116.485C77.4382 116.074 77.6747 115.253 77.7929 114.314C77.9703 112.436 78.325 109.795 78.325 106.861C78.325 105.394 78.2658 103.986 78.0885 102.753C77.9112 101.521 77.6156 100.347 77.0836 99.5258C76.6107 98.7042 75.9604 98.1174 75.5466 97.8826C75.3102 97.7653 75.1328 97.6479 75.0146 97.5892C74.8964 97.5305 74.7782 97.5305 74.7782 97.5305C74.7782 97.5305 75.0737 97.6479 75.4875 97.9413C75.9013 98.2347 76.4924 98.7629 76.9062 99.6431C77.852 101.286 77.9703 103.986 78.0294 106.861C78.0294 109.737 77.7338 112.377 77.5565 114.314C77.4974 115.253 77.2609 116.016 76.9653 116.426C76.6698 116.837 76.3742 117.013 76.4333 117.013Z" fill="#F26E11"/>
<path d="M69.458 118.95C69.458 118.95 69.458 118.656 69.3989 118.187C69.3398 117.659 69.2807 116.954 69.1624 116.133C68.9851 114.431 68.6895 112.025 68.4531 109.443C68.2166 106.802 67.9802 104.455 67.8028 102.695C67.7437 101.873 67.6846 101.228 67.6255 100.641C67.5664 100.171 67.5664 99.8778 67.5073 99.8778C67.5073 99.8778 67.5073 100.171 67.5073 100.641C67.5073 101.11 67.5664 101.814 67.6255 102.695C67.7437 104.396 67.9211 106.802 68.1575 109.443C68.394 112.084 68.7486 114.431 68.9851 116.133C69.1033 117.013 69.2216 117.659 69.2807 118.128C69.3989 118.715 69.458 118.95 69.458 118.95Z" fill="#F26E11"/>
<path d="M59.2316 100.113C59.2316 100.113 59.1725 100.113 58.9951 100.113C58.8769 100.171 58.6404 100.23 58.4631 100.406C58.0493 100.758 57.7538 101.58 57.6355 102.519C57.4582 103.457 57.4582 104.631 57.5173 105.863C57.5764 107.096 57.8129 108.504 57.9902 109.913C58.1675 111.321 58.4631 112.729 58.8178 113.903C59.1725 115.135 59.7045 116.133 60.2365 116.954C60.7685 117.776 61.3005 118.304 61.7143 118.656C61.8917 118.832 62.069 118.95 62.1872 119.008C62.3055 119.067 62.3646 119.126 62.3646 119.126C62.4237 119.067 61.3597 118.422 60.3547 116.837C59.8818 116.016 59.3498 115.018 58.9951 113.844C58.6405 112.671 58.404 111.321 58.1675 109.854C57.9902 108.446 57.7538 107.037 57.6946 105.805C57.5764 104.572 57.5764 103.457 57.7537 102.519C57.872 101.58 58.1084 100.875 58.4631 100.465C58.8769 100.113 59.2316 100.171 59.2316 100.113Z" fill="#F26E11"/>
<path d="M55.6848 99.5844C57.8719 100.465 57.8128 103.986 59.4089 105.629C61.537 107.8 65.3793 106.274 68.1577 107.565C71.8227 109.267 71.7636 114.725 74.8966 117.307C76.7882 118.891 79.6848 119.184 81.1626 121.18C82.6995 123.234 81.7537 126.637 79.3301 127.576C78.5616 127.107 77.7931 126.637 77.0247 126.109C77.6749 127.165 77.3202 128.574 76.5517 129.571C75.7833 130.51 74.601 131.156 73.537 131.684C72.1182 131.508 71.4089 129.982 71.0542 128.632C70.7586 127.283 70.5222 125.757 69.4582 124.877C68.1577 123.82 66.1478 124.231 64.67 123.41C61.7734 121.766 63.0148 116.837 60.4138 114.725C58.7586 113.375 56.335 113.786 54.3843 112.964C51.5468 111.79 50.4237 108.446 50.1281 105.394C49.8325 102.401 50.0099 99.1737 48.4729 96.5329" fill="#263238"/>
<path d="M83.4089 93.188C80.5715 93.7749 77.4976 92.8946 75.3695 90.9581C73.2414 89.0216 72.1774 86.0288 72.5321 83.1533C72.8276 80.6299 74.1873 78.1066 73.3597 75.7006C72.1774 72.5317 67.7439 71.5928 66.5616 68.4826C65.8523 66.6635 66.5025 64.5509 65.7341 62.7317C65.0247 61.03 63.2513 60.091 61.4779 59.4455C59.7636 58.8 57.872 58.3892 56.4533 57.2743C54.9754 56.1593 54.0887 54.0467 55.0346 52.4623C62.7193 53.4012 70.2858 55.2204 77.5567 57.8611C79.2119 58.5066 80.9853 59.2108 81.9902 60.7365C83.0543 62.321 82.9951 64.3162 82.8769 66.194C82.4631 75.3485 81.9902 84.5617 81.5764 93.7162" fill="#263238"/>
<path d="M88.9655 101.697C88.9655 101.697 89.0247 101.462 89.0247 100.993C89.0247 100.523 88.9064 99.8779 88.6109 99.0563C88.3153 98.2347 87.7242 97.3545 86.8966 96.4743C86.069 95.594 84.8867 94.7725 83.5271 94.0096C82.1675 93.2467 80.6306 92.6012 79.0936 91.6623C77.5567 90.782 76.0197 89.5497 75.0148 87.8479C74.5419 86.9677 74.1872 85.9701 74.2463 84.9725C74.2463 83.9162 74.4828 82.8599 74.7192 81.8036C74.9557 80.7473 75.1921 79.5737 74.9557 78.4C74.8375 77.8132 74.601 77.285 74.2463 76.8156C73.8917 76.3461 73.4187 75.994 72.8867 75.6419C71.8818 75.0551 70.7586 74.703 69.6946 74.2335C68.6897 73.7641 67.7439 73.1186 67.2118 72.1796C66.6798 71.2407 66.5025 70.1844 66.5025 69.1282C66.4434 68.0719 66.5025 67.0743 66.5025 66.018C66.5025 65.0204 66.3843 64.0228 66.0296 63.0838C65.9114 62.8491 65.8522 62.6144 65.734 62.4383C65.6158 62.2036 65.4976 62.0276 65.3202 61.8515C65.0247 61.4994 64.67 61.1473 64.3153 60.8539C62.7783 59.7976 61.0641 59.4455 59.5862 59.0934C58.1084 58.7413 56.7488 58.3306 55.7439 57.685C54.7389 57.0395 54.1478 56.1006 53.9114 55.279C53.6749 54.4575 53.734 53.812 53.8522 53.4012C53.9705 52.9904 54.1478 52.8144 54.1478 52.7557C54.1478 52.7557 53.9705 52.9317 53.7931 53.3425C53.6158 53.7533 53.5567 54.4575 53.7931 55.279C54.0296 56.1006 54.6207 57.0982 55.6256 57.8024C56.6306 58.5066 57.9902 58.9174 59.468 59.3282C60.9458 59.6802 62.601 60.0323 64.0788 61.0886C64.4335 61.3234 64.7291 61.6755 65.0247 62.0276C65.1429 62.2036 65.2611 62.3796 65.3793 62.6144C65.4976 62.7904 65.5567 63.0252 65.6749 63.2599C65.9705 64.1401 66.0887 65.1377 66.0887 66.1353C66.0887 67.1329 66.0296 68.1892 66.0887 69.2455C66.1478 70.3018 66.266 71.4168 66.8572 72.4144C67.3892 73.412 68.4532 74.1162 69.4582 74.5856C70.5222 75.0551 71.5862 75.4072 72.5912 75.994C73.0641 76.2874 73.537 76.6395 73.8916 77.0503C74.2463 77.4611 74.4828 77.9892 74.5419 78.5174C74.7784 79.5737 74.5419 80.6886 74.3054 81.7449C74.069 82.8012 73.8325 83.8575 73.8325 84.9725C73.8325 86.0288 74.1281 87.085 74.6601 87.9653C75.7242 89.7258 77.3202 90.9581 78.8572 91.897C80.4532 92.7773 81.9902 93.4814 83.3498 94.1856C84.7094 94.8898 85.8325 95.7114 86.6601 96.5329C87.4877 97.4132 88.0788 98.2934 88.4335 99.0563C88.7882 99.8192 88.8473 100.465 88.9064 100.934C88.9655 101.462 88.9655 101.697 88.9655 101.697Z" fill="#263238"/>
<path d="M58.9951 108.68C58.9951 108.622 58.2858 108.856 56.9853 108.856C55.6848 108.856 53.7931 108.446 51.8424 107.154C50.8966 106.509 49.9508 105.57 49.3005 104.396C48.5912 103.223 48.2956 101.814 48 100.289C47.7045 98.7629 47.468 97.1198 46.6404 95.6527C45.7537 94.127 44.2168 93.188 42.9163 92.0144C41.5567 90.8407 40.7291 89.2563 40.4927 87.6719C40.3744 86.8503 40.3744 86.0288 40.5518 85.2659C40.7291 84.503 41.0247 83.7988 41.3794 83.0946C42.1478 81.8036 43.0936 80.63 43.5074 79.2802C43.9803 77.9892 44.0395 76.6395 43.9212 75.4659C43.6848 73.1186 42.9754 71.3581 42.5025 70.1258C42.266 69.5389 42.0296 69.0695 41.9114 68.7761C41.7931 68.4826 41.6749 68.3066 41.6749 68.3066C41.6749 68.3066 41.734 68.4826 41.8523 68.7761C41.9705 69.1281 42.1478 69.5976 42.3843 70.1844C42.7981 71.4168 43.5074 73.1773 43.7439 75.4659C43.8621 76.5808 43.7439 77.8719 43.3301 79.1629C42.9163 80.4539 41.9705 81.5689 41.202 82.9186C40.7882 83.5641 40.4927 84.327 40.3153 85.1485C40.138 85.9701 40.138 86.7916 40.2562 87.6719C40.3744 88.4934 40.67 89.3737 41.0838 90.1365C41.4976 90.8994 42.0887 91.6036 42.739 92.1904C44.0986 93.3641 45.5764 94.3617 46.404 95.7701C47.2316 97.1784 47.468 98.8216 47.7636 100.347C48.0592 101.873 48.3547 103.34 49.1232 104.514C49.8326 105.746 50.7784 106.626 51.7833 107.272C53.734 108.622 55.7439 108.974 57.0444 108.915C57.3991 108.915 57.6946 108.915 57.9311 108.856C58.1675 108.856 58.404 108.798 58.5813 108.739C58.8178 108.739 58.9951 108.739 58.9951 108.68Z" fill="#263238"/>
<path d="M23.3499 171.06C28.0789 171.06 32.6307 168.654 35.2907 164.37L108.532 45.5964C108.887 45.0096 108.709 44.188 108.118 43.8359C107.527 43.4838 106.7 43.6599 106.345 44.2467L33.1627 163.079C29.9114 168.36 23.0543 170.121 17.6159 167.011C14.8375 165.426 12.9459 162.903 12.1775 159.852C11.409 156.8 11.941 153.631 13.6553 150.99L15.9016 147.528C16.2563 146.941 16.138 146.12 15.4878 145.768C14.8967 145.357 14.0691 145.533 13.7144 146.178L11.4681 149.641C9.39912 152.868 8.74887 156.741 9.63557 160.497C10.5814 164.253 12.9459 167.363 16.2563 169.299C18.5026 170.473 20.9853 171.06 23.3499 171.06Z" fill="#E9EEFA"/>
<path d="M16.4335 15.1401C16.4335 15.1401 42.1478 16.6659 54.6207 41.9581C54.6207 41.9581 82.936 39.6108 91.6257 62.6144C91.6257 62.6144 124.434 58.9174 131.468 88.9042C131.468 88.9042 157.714 87.9653 159.251 111.673C159.251 111.673 176.985 112.377 178.168 130.217C178.168 130.217 193.064 57.3916 138.266 19.1892C80.335 -21.1844 16.4335 15.1401 16.4335 15.1401Z" fill="#E9EEFA"/>
<path d="M48.1773 170.708L51.2512 157.093L47.9409 155.744C47.468 155.392 45.7537 154.101 43.4483 151.695C42.7389 150.932 42.1478 150.052 41.734 149.113C41.202 147.998 40.6108 146.413 40.5517 145.474C40.4926 144.301 38.9557 143.831 38.4236 144.77C37.8325 145.65 38.0098 148.937 39.8424 152.223C41.0837 154.453 38.9557 154.159 36.8276 153.514C35.2315 153.044 33.5172 153.807 32.867 155.333L30.9162 159.793C29.6749 162.61 31.0936 165.955 33.9901 167.011C34.936 167.363 35.6453 167.598 35.6453 167.598L48.1773 170.708Z" fill="#FFBE9D"/>
<path d="M162.916 74.1162C162.916 74.1749 163.921 74.1749 165.517 74.4096C166.286 74.527 167.232 74.7617 168.237 75.0551C169.242 75.4072 170.306 75.818 171.37 76.4048C172.434 76.9916 173.379 77.6371 174.207 78.2826C175.035 78.9281 175.685 79.6323 176.217 80.2192C177.281 81.3928 177.813 82.2731 177.872 82.2144C177.872 82.2144 177.754 81.9797 177.517 81.6276C177.399 81.4515 177.222 81.2168 177.044 80.9234C176.867 80.6886 176.631 80.3952 176.394 80.0431C175.862 79.3976 175.212 78.7521 174.384 78.0479C173.557 77.3437 172.611 76.6982 171.488 76.1114C170.424 75.5246 169.301 75.1138 168.296 74.7617C167.291 74.4683 166.345 74.2335 165.517 74.1749C165.104 74.1162 164.749 74.1162 164.453 74.0575C164.158 74.0575 163.862 73.9988 163.626 74.0575C163.153 74.0575 162.916 74.0575 162.916 74.1162Z" fill="#F26E11"/>
<path d="M139.803 61.6168C139.803 61.6168 140.217 61.4994 140.985 61.206C141.754 60.9713 142.818 60.6779 144.236 60.4431C145.655 60.2671 147.31 60.2084 149.143 60.5018C150.975 60.7952 152.985 61.382 154.818 62.4383C156.709 63.4946 158.246 64.8443 159.429 66.2527C160.611 67.6611 161.498 69.1282 162.03 70.4192C162.621 71.7102 162.916 72.7665 163.094 73.588C163.271 74.3509 163.33 74.7617 163.389 74.7617C163.389 74.7617 163.389 74.6443 163.389 74.4683C163.33 74.2922 163.33 73.9401 163.271 73.588C163.153 72.8252 162.857 71.7102 162.325 70.3605C161.793 69.0695 160.966 67.5437 159.724 66.1353C158.542 64.6683 156.946 63.3186 155.054 62.2036C153.163 61.1473 151.153 60.5605 149.261 60.2671C147.369 60.0323 145.655 60.091 144.236 60.2671C142.818 60.5018 141.695 60.7952 140.985 61.0886C140.631 61.206 140.335 61.382 140.158 61.4407C139.862 61.5581 139.803 61.5581 139.803 61.6168Z" fill="#F26E11"/>
<path d="M109.951 37.7916C109.951 37.8503 110.542 37.6156 111.606 37.4395C112.67 37.2048 114.266 37.0874 116.217 37.2635C117.222 37.3222 118.227 37.5569 119.35 37.7916C120.473 38.085 121.655 38.4371 122.838 38.9653C124.02 39.4934 125.261 40.0802 126.443 40.8431C127.626 41.606 128.808 42.4862 129.872 43.5425C132 45.5964 133.714 47.9437 135.074 50.115C136.434 52.3449 137.498 54.3988 138.325 56.1593C139.153 57.9198 139.803 59.3868 140.276 60.3844C140.512 60.8539 140.69 61.2647 140.808 61.5581C140.926 61.7928 140.985 61.9689 140.985 61.9689C140.985 61.9689 140.926 61.7928 140.867 61.5581C140.749 61.2647 140.572 60.8539 140.394 60.3844C139.98 59.3868 139.389 57.9198 138.562 56.1006C137.734 54.3401 136.729 52.2276 135.37 49.9976C134.01 47.7677 132.296 45.4204 130.168 43.3078C129.104 42.2515 127.921 41.3713 126.68 40.6084C125.498 39.8455 124.256 39.2 123.074 38.6719C121.892 38.1437 120.65 37.7916 119.527 37.4982C118.404 37.2635 117.34 37.0874 116.335 37.0288C114.384 36.9114 112.729 37.0874 111.665 37.3222C111.133 37.4395 110.719 37.5569 110.424 37.6743C110.128 37.7329 109.951 37.7916 109.951 37.7916Z" fill="#F26E11"/>
<path d="M81.5172 20.3042C81.5172 20.3042 82.0492 20.1868 82.9359 19.9521C83.8226 19.7174 85.1822 19.4826 86.8965 19.424C90.266 19.3066 95.0542 20.2455 99.3103 23.121C100.374 23.8252 101.379 24.6467 102.266 25.4096C103.153 26.2311 103.98 27.1114 104.69 27.9329C106.108 29.6347 107.231 31.3365 108 32.8036C108.828 34.2707 109.36 35.503 109.773 36.3832C109.951 36.794 110.069 37.1461 110.187 37.3808C110.305 37.6156 110.365 37.7329 110.365 37.7329C110.365 37.7329 110.365 37.6156 110.246 37.3808C110.187 37.1461 110.069 36.794 109.892 36.3832C109.537 35.503 109.005 34.212 108.236 32.7449C107.468 31.2192 106.345 29.5174 104.926 27.8156C104.217 26.9353 103.389 26.0551 102.502 25.2335C101.616 24.412 100.611 23.5904 99.5468 22.8862C95.1724 19.9521 90.3251 19.0132 86.9556 19.1892C85.2414 19.2479 83.8817 19.5413 82.995 19.8347C82.5221 19.9521 82.1675 20.1281 81.931 20.1868C81.6354 20.2455 81.5172 20.3042 81.5172 20.3042Z" fill="#F26E11"/>
<path d="M51.7833 6.74851C51.7833 6.74851 52.2562 6.63115 53.0838 6.33774C53.9114 6.10301 55.1528 5.75091 56.7489 5.57486C58.2858 5.39881 60.1774 5.34013 62.2464 5.57486C64.3154 5.86827 66.5025 6.4551 68.6897 7.51139C70.8178 8.56768 72.7094 9.91738 74.1873 11.3844C75.6651 12.8515 76.7883 14.3186 77.5567 15.6683C78.3843 17.018 78.8572 18.1916 79.2119 19.0132C79.5075 19.8347 79.6848 20.3042 79.6848 20.3042C79.6848 20.3042 79.6848 20.1868 79.6257 19.9521C79.5666 19.7174 79.5075 19.424 79.3301 18.9545C79.0346 18.1329 78.5617 16.9593 77.7932 15.5509C77.0247 14.2012 75.9016 12.6168 74.4237 11.1497C72.9459 9.68265 71.0543 8.27426 68.8671 7.21798C66.6799 6.16169 64.4336 5.57486 62.3055 5.28145C60.2365 5.04672 58.2858 5.1054 56.7489 5.34013C55.1528 5.57486 53.9114 5.92696 53.0838 6.22037C52.67 6.33774 52.3745 6.51378 52.138 6.57247C51.8424 6.68983 51.7242 6.74851 51.7833 6.74851Z" fill="#F26E11"/>
<path d="M41.8523 4.10779C41.8523 4.16647 42.2661 4.16647 42.9163 4.28383C43.5666 4.4012 44.4533 4.69461 45.34 5.22276C46.2267 5.7509 46.8769 6.39641 47.2907 6.92455C47.7045 7.4527 47.8818 7.80479 47.9409 7.80479C48.0001 7.80479 47.8227 7.39401 47.468 6.80719C47.1134 6.22036 46.404 5.51617 45.5173 4.92934C44.6306 4.4012 43.6257 4.10779 42.9754 4.0491C42.2661 4.0491 41.8523 4.10779 41.8523 4.10779Z" fill="#F26E11"/>
<path d="M161.616 98.2347C161.616 98.2934 162.916 98.1761 164.926 98.4108C165.162 98.4695 165.458 98.4695 165.694 98.5281C165.99 98.5868 166.227 98.6455 166.522 98.7042C167.113 98.8216 167.704 98.9976 168.355 99.2323C169.596 99.6431 170.956 100.289 172.315 101.052C173.616 101.873 174.798 102.812 175.744 103.751C176.217 104.22 176.69 104.69 177.044 105.159C177.222 105.394 177.399 105.629 177.576 105.805C177.754 106.04 177.872 106.274 178.049 106.45C179.172 108.152 179.645 109.326 179.704 109.267C179.704 109.267 179.586 108.974 179.409 108.446C179.291 108.152 179.172 107.859 178.936 107.507C178.759 107.154 178.522 106.744 178.227 106.333C178.108 106.098 177.931 105.922 177.754 105.687C177.576 105.453 177.399 105.218 177.222 104.983C176.867 104.514 176.394 104.044 175.921 103.516C174.975 102.577 173.793 101.58 172.433 100.758C171.074 99.9365 169.714 99.3497 168.414 98.9389C167.763 98.7629 167.113 98.5282 166.522 98.4695C166.227 98.4108 165.931 98.3521 165.635 98.2934C165.34 98.2347 165.103 98.2347 164.808 98.1761C164.276 98.1174 163.803 98.1174 163.448 98.1174C163.034 98.1174 162.68 98.1174 162.384 98.1174C161.911 98.1761 161.616 98.2347 161.616 98.2347Z" fill="#F26E11"/>
<path d="M134.364 81.0407C134.364 81.0407 134.483 81.0407 134.719 80.982C134.956 80.9234 135.31 80.8647 135.783 80.806C136.729 80.6886 138.03 80.5126 139.744 80.5713C141.399 80.5713 143.409 80.806 145.537 81.3341C147.665 81.8623 149.911 82.8012 152.098 84.1509C154.227 85.5006 156.059 87.1437 157.478 88.8455C158.897 90.5473 159.961 92.1904 160.67 93.7162C161.379 95.1832 161.852 96.4743 162.148 97.3545C162.325 97.7653 162.384 98.1761 162.443 98.3521C162.502 98.5868 162.562 98.7042 162.562 98.7042C162.562 98.7042 162.562 98.5868 162.502 98.3521C162.443 98.1174 162.384 97.7653 162.266 97.2958C162.03 96.4156 161.616 95.1246 160.906 93.5988C160.197 92.0731 159.133 90.3713 157.714 88.6695C156.296 86.9677 154.463 85.3246 152.276 83.9162C150.089 82.5665 147.783 81.6275 145.655 81.0994C143.468 80.5713 141.458 80.3365 139.803 80.3952C138.148 80.3952 136.788 80.5713 135.842 80.7473C135.369 80.806 135.015 80.9234 134.778 80.982C134.483 80.982 134.364 81.0407 134.364 81.0407Z" fill="#F26E11"/>
<path d="M96.4729 55.3964C96.4729 55.3964 96.6502 55.3964 97.0049 55.3377C97.3596 55.279 97.8325 55.1617 98.4827 55.103C99.7832 54.927 101.675 54.7509 104.039 54.8683C105.222 54.927 106.463 55.103 107.823 55.3964C109.182 55.6898 110.601 56.1006 112.02 56.6287C114.916 57.7437 117.931 59.3868 120.887 61.3234C122.365 62.321 123.724 63.3773 124.966 64.4922C126.207 65.6072 127.33 66.7808 128.335 67.9545C130.345 70.3018 131.823 72.6491 132.887 74.703C133.951 76.7569 134.66 78.5174 135.074 79.7497C135.31 80.3365 135.429 80.8647 135.547 81.1581C135.665 81.5102 135.724 81.6276 135.724 81.6276C135.724 81.6276 135.665 81.4515 135.606 81.0994C135.488 80.7473 135.369 80.2778 135.192 79.6323C134.778 78.4 134.128 76.5808 133.064 74.527C132 72.4731 130.522 70.0671 128.512 67.6611C127.507 66.4874 126.384 65.3138 125.143 64.1401C123.901 63.0252 122.483 61.9102 121.005 60.9126C117.99 58.9761 114.975 57.3329 112.079 56.218C110.601 55.6311 109.182 55.2204 107.823 54.9856C106.463 54.6922 105.163 54.5749 103.98 54.5162C101.616 54.3988 99.7241 54.6335 98.4236 54.8683C97.7734 54.9856 97.3005 55.103 96.9458 55.1617C96.6502 55.3377 96.4729 55.3964 96.4729 55.3964Z" fill="#F26E11"/>
<path d="M59.2906 36.0311C59.2906 36.0311 59.468 36.0311 59.7635 35.9725C60.0591 35.9138 60.4729 35.8551 61.064 35.7377C62.1872 35.5617 63.8423 35.3856 65.9113 35.3856C67.9803 35.3856 70.4039 35.5617 73.064 36.1485C74.3645 36.4419 75.7832 36.8527 77.1428 37.3222C78.5024 37.7916 79.9212 38.4371 81.2808 39.2C84 40.6671 86.4827 42.3689 88.4926 44.188C90.5024 46.0072 92.0394 47.885 93.1625 49.5868C94.2857 51.2886 94.9359 52.8144 95.4088 53.8707C95.6453 54.3988 95.7635 54.8096 95.8817 55.103C96 55.3964 96.0591 55.5138 96.0591 55.5138C96.0591 55.5138 96 55.3377 95.9409 55.0443C95.8226 54.7509 95.7044 54.3401 95.5271 53.812C95.1133 52.7557 94.463 51.23 93.399 49.4695C92.3349 47.709 90.7389 45.7725 88.729 43.9533C86.7192 42.1341 84.2364 40.4323 81.4581 38.9066C80.0985 38.1437 78.6798 37.5569 77.2611 37.0288C75.8423 36.5006 74.4827 36.1485 73.1231 35.8551C70.463 35.2683 67.9803 35.0922 65.9113 35.1509C63.8423 35.2096 62.1872 35.3856 61.064 35.6204C60.4729 35.7377 60.0591 35.8551 59.7635 35.9138C59.468 35.9725 59.2906 35.9725 59.2906 36.0311Z" fill="#F26E11"/>
<path d="M31.862 13.8491C31.862 13.8491 31.9803 13.8491 32.2758 13.8491C32.5123 13.8491 32.9261 13.8491 33.399 13.9078C34.4039 13.9665 35.8226 14.0838 37.5369 14.3772C40.9655 14.9641 45.6946 16.6659 49.8916 20.0108C54.0886 23.3557 56.6305 27.6395 57.931 30.8671C58.5813 32.5102 58.995 33.8599 59.2315 34.7988C59.3497 35.2683 59.4088 35.6204 59.468 35.9138C59.5271 36.1485 59.5862 36.3246 59.5862 36.2659C59.5862 36.2659 59.5862 36.1485 59.5271 35.8551C59.468 35.6204 59.4088 35.2096 59.3497 34.7401C59.1724 33.8012 58.7586 32.3928 58.1083 30.7497C56.867 27.4635 54.266 23.1796 50.0689 19.776C45.8719 16.3725 41.0837 14.7293 37.596 14.1425C35.8226 13.8491 34.4039 13.7904 33.399 13.7904C32.9261 13.7904 32.5123 13.7904 32.2758 13.7904C32.0394 13.7904 31.862 13.8491 31.862 13.8491Z" fill="#F26E11"/>
<path d="M24.0591 11.8539C24.0591 11.9126 24.4729 11.8539 25.1232 11.7952C25.7734 11.7952 26.6601 11.8539 27.5468 12.206C28.4335 12.5581 29.202 13.0276 29.6749 13.4383C30.1478 13.8491 30.4434 14.1425 30.4434 14.1425C30.4434 14.1425 30.266 13.7904 29.7931 13.321C29.3202 12.8515 28.5517 12.3234 27.6059 11.9713C26.6601 11.6192 25.7143 11.5605 25.064 11.6192C24.4138 11.6779 24.0591 11.7952 24.0591 11.8539Z" fill="#F26E11"/>
<path d="M158.542 48.0611C158.601 48.1198 158.897 47.885 159.429 47.5916C159.961 47.3569 160.847 47.0635 161.734 47.1222C162.68 47.1809 163.508 47.4743 164.04 47.709C164.631 47.9437 164.926 48.1785 164.985 48.1198C164.985 48.1198 164.69 47.8264 164.158 47.5329C163.626 47.2395 162.739 46.8874 161.734 46.8288C160.729 46.7701 159.842 47.0635 159.31 47.4156C158.778 47.7677 158.483 48.0611 158.542 48.0611Z" fill="#F26E11"/>
<path d="M142.404 41.8407C142.404 41.8994 143.409 41.3126 145.241 40.9605C147.015 40.6084 149.675 40.5497 152.276 41.606C154.877 42.6623 156.709 44.5988 157.655 46.1246C158.66 47.6503 158.956 48.7653 159.015 48.7653C159.015 48.7653 158.956 48.4719 158.778 48.0024C158.601 47.5329 158.306 46.8288 157.833 46.0072C156.887 44.4228 155.054 42.4276 152.394 41.3126C149.734 40.1976 147.015 40.315 145.241 40.7258C144.355 40.9605 143.645 41.1952 143.173 41.4299C142.641 41.6647 142.404 41.782 142.404 41.8407Z" fill="#F26E11"/>
<path d="M122.424 25.9964C122.424 25.9964 122.837 26.0551 123.547 26.1138C124.256 26.1725 125.261 26.2898 126.502 26.5832C127.744 26.818 129.222 27.2287 130.759 27.8743C132.296 28.4611 134.01 29.3413 135.547 30.4563C138.68 32.7449 140.749 35.6204 141.931 37.8503C142.522 38.9653 142.877 39.9042 143.113 40.6084C143.35 41.2539 143.468 41.6647 143.527 41.6647C143.527 41.6647 143.527 41.5473 143.468 41.3713C143.409 41.1952 143.35 40.9018 143.232 40.6084C143.054 39.9042 142.64 38.9653 142.108 37.7916C140.985 35.503 138.916 32.5102 135.724 30.2216C134.128 29.0479 132.414 28.2264 130.877 27.6395C129.281 27.0527 127.803 26.6419 126.562 26.4072C125.32 26.1725 124.256 26.0551 123.547 26.0551C123.192 26.0551 122.897 26.0551 122.719 26.0551C122.542 25.9964 122.424 25.9964 122.424 25.9964Z" fill="#F26E11"/>
<path d="M106.641 11.6779C106.641 11.7365 107.882 11.9126 109.833 12.5581C110.306 12.7341 110.838 12.9102 111.37 13.2036C111.902 13.4383 112.493 13.7317 113.084 14.0838C114.266 14.788 115.448 15.6096 116.631 16.6659C117.754 17.7222 118.759 18.8371 119.527 19.8934C119.882 20.4803 120.296 20.9497 120.532 21.4779C120.65 21.7126 120.828 22.006 120.946 22.2407C121.064 22.4755 121.182 22.7102 121.301 22.9449C122.128 24.7641 122.424 26.0551 122.483 25.9964C122.483 25.9964 122.424 25.703 122.306 25.1162C122.246 24.8228 122.128 24.4707 122.01 24.1186C121.892 23.7078 121.714 23.297 121.537 22.8276C121.419 22.5928 121.301 22.3581 121.182 22.0647C121.064 21.83 120.887 21.5365 120.769 21.3018C120.473 20.7737 120.118 20.2455 119.764 19.6587C118.995 18.5437 117.99 17.4288 116.867 16.3138C115.685 15.2575 114.444 14.4359 113.261 13.7317C112.67 13.4383 112.079 13.0862 111.547 12.9102C111.015 12.6755 110.483 12.4994 109.951 12.3234C109.478 12.1473 109.005 12.03 108.591 11.9713C108.177 11.8539 107.823 11.7952 107.586 11.7952C106.936 11.7365 106.641 11.6779 106.641 11.6779Z" fill="#F26E11"/>
<path d="M99.9014 4.69462C99.9014 4.7533 100.374 4.92935 101.084 5.28144C101.793 5.63354 102.739 6.27905 103.626 7.15929C104.512 8.03953 105.103 9.03713 105.458 9.74132C105.813 10.5042 105.931 10.9737 105.99 10.9737C106.049 10.9737 105.931 10.4455 105.635 9.68264C105.34 8.91977 104.749 7.86348 103.862 6.98324C102.975 6.04432 101.97 5.45749 101.202 5.10539C100.433 4.7533 99.9014 4.63593 99.9014 4.69462Z" fill="#F26E11"/>
<path d="M138.798 19.6C138.798 19.6 139.035 19.8347 139.508 20.3042C139.98 20.7737 140.749 21.3605 141.636 22.2407C143.468 24.0012 145.951 26.6419 148.552 30.2802C151.212 33.9186 153.99 38.4958 156.414 43.8946C157.596 46.594 158.778 49.4695 159.724 52.5796C160.67 55.6898 161.379 58.9174 161.852 62.2623C163.567 75.8766 162.562 88.3174 161.616 97.2371C161.143 101.697 160.67 105.277 160.315 107.8C160.138 108.974 160.02 109.971 159.961 110.675C159.902 111.321 159.842 111.673 159.902 111.673C159.902 111.673 160.02 111.321 160.138 110.675C160.256 109.971 160.434 109.032 160.611 107.8C161.025 105.335 161.557 101.697 162.089 97.2371C163.153 88.3174 164.217 75.818 162.503 62.1449C162.03 58.7413 161.261 55.4551 160.315 52.3449C159.37 49.2347 158.187 46.3006 156.946 43.6012C154.463 38.2024 151.567 33.5665 148.907 29.9868C146.187 26.3485 143.645 23.7078 141.754 22.006C140.808 21.1258 140.04 20.5389 139.508 20.1281C139.094 19.7761 138.857 19.5413 138.798 19.6Z" fill="#263238"/>
<path d="M138.798 19.6C138.739 19.6587 139.448 20.4216 140.276 22.006C141.163 23.5904 142.049 26.0551 142.522 29.2826C142.995 32.5102 142.995 36.3832 142.7 40.6671C142.404 44.9509 141.99 49.6455 141.281 54.5749C139.921 64.4335 137.675 73.1186 135.665 79.3389C134.66 82.4491 133.774 84.9138 133.123 86.6156C132.828 87.4371 132.591 88.0826 132.414 88.5521C132.237 89.0216 132.177 89.2563 132.177 89.2563C132.177 89.2563 132.296 89.0216 132.532 88.6108C132.769 88.0826 133.064 87.4958 133.36 86.6743C134.069 84.9725 135.074 82.5078 136.138 79.4563C138.266 73.2946 140.631 64.5509 141.99 54.6335C142.7 49.7042 143.113 44.9509 143.35 40.6671C143.645 36.3832 143.586 32.4515 143.054 29.224C142.522 25.9964 141.517 23.4731 140.572 21.8886C140.099 21.1258 139.685 20.5389 139.33 20.1868C139.035 19.7761 138.857 19.6 138.798 19.6Z" fill="#263238"/>
<path d="M136.493 17.9569C136.493 17.9569 136.197 17.7808 135.665 17.4874C135.133 17.194 134.305 16.7246 133.241 16.2551C131.113 15.2575 127.98 13.8491 123.961 12.6755C119.941 11.5018 114.857 10.6802 109.301 10.9737C103.685 11.2671 97.6552 12.6168 91.6257 14.7293C79.3892 18.9545 69.7538 25.879 63.5469 31.3952C60.4139 34.1533 58.0493 36.618 56.4533 38.3784C55.6848 39.2587 55.0937 39.9629 54.6799 40.4323C54.2661 40.9018 54.0887 41.1365 54.0887 41.1952C54.0887 41.1952 54.3252 40.9605 54.739 40.5497C55.1528 40.1389 55.803 39.4347 56.5715 38.6132C58.1676 36.9114 60.5912 34.5641 63.7833 31.806C70.1084 26.4072 79.6848 19.6 91.803 15.3749C97.8326 13.2623 103.803 11.9126 109.301 11.6192C114.798 11.3258 119.823 12.0299 123.842 13.1449C127.862 14.2599 130.995 15.5509 133.182 16.4898C134.246 16.9593 135.074 17.3701 135.606 17.6048C136.197 17.8982 136.493 18.0156 136.493 17.9569Z" fill="#263238"/>
<path d="M24.5912 16.3725C24.5912 16.3725 24.7094 16.3725 24.8868 16.2551C25.1232 16.1377 25.3597 16.0204 25.7144 15.903C26.4828 15.5509 27.4878 15.0814 28.7883 14.4946C29.4385 14.2012 30.207 13.8491 30.9754 13.4383C31.803 13.0862 32.6897 12.7341 33.6946 12.382C35.6454 11.6192 37.8326 10.6802 40.3153 9.91737C41.5567 9.50659 42.8572 9.09582 44.2168 8.62635C45.5764 8.21558 47.0543 7.86348 48.5321 7.4527C51.4878 6.57246 54.739 5.98564 58.1675 5.28144C65.0247 4.10779 72.5912 3.22755 80.6306 3.16887C88.67 3.16887 96.2365 3.99043 103.094 5.22276C106.463 5.98564 109.714 6.57246 112.67 7.57007C114.148 8.03953 115.567 8.39162 116.926 8.86109C118.286 9.38923 119.527 9.85869 120.769 10.3282C123.251 11.1497 125.379 12.2647 127.271 13.1449C128.217 13.6144 129.104 13.9665 129.872 14.3773C130.64 14.788 131.35 15.1988 132 15.6096C133.241 16.3138 134.246 16.8419 134.956 17.2527C135.251 17.4287 135.547 17.5461 135.724 17.6635C135.902 17.7808 136.02 17.7808 136.02 17.7808C136.02 17.7808 135.961 17.7222 135.783 17.6048C135.606 17.4874 135.31 17.3114 135.015 17.1353C134.305 16.7246 133.36 16.1377 132.118 15.3749C131.468 15.0228 130.759 14.5533 129.99 14.1425C129.222 13.7317 128.335 13.321 127.389 12.8515C125.498 11.9713 123.37 10.7976 120.887 9.91737C119.645 9.44791 118.345 8.91977 117.044 8.39162C115.685 7.92216 114.266 7.51138 112.788 7.04192C109.833 6.04432 106.581 5.39881 103.212 4.63594C96.3548 3.34492 88.67 2.52336 80.6306 2.52336C72.5912 2.58204 64.9065 3.46228 58.0493 4.69462C54.6208 5.45749 51.3695 6.04432 48.4139 6.92456C46.936 7.33534 45.4582 7.74612 44.0986 8.15689C42.739 8.62635 41.4385 9.09582 40.1971 9.50659C37.6552 10.3282 35.5272 11.2671 33.5764 12.0886C32.6306 12.4994 31.7439 12.8515 30.9163 13.2036C30.1479 13.6144 29.3794 13.9665 28.7291 14.3186C27.4286 14.9641 26.4237 15.4922 25.7144 15.8443C25.4188 16.0204 25.1232 16.1377 24.9459 16.2551C24.7094 16.3138 24.5912 16.3138 24.5912 16.3725Z" fill="#263238"/>
<path d="M136.493 17.9569C136.493 17.9569 136.256 18.0156 135.902 18.1329C135.488 18.309 134.897 18.485 134.187 18.8371C132.709 19.4826 130.581 20.4802 128.099 21.9473C125.616 23.4144 122.719 25.2922 119.764 27.7569C116.808 30.2216 113.852 33.1557 110.897 36.3832C104.985 42.897 100.315 49.3521 97.005 54.0467C95.3498 56.394 94.0493 58.3305 93.1626 59.6802C92.7488 60.3258 92.4533 60.7952 92.1577 61.206C91.9212 61.5581 91.803 61.7341 91.8621 61.7928C91.8621 61.7928 92.0395 61.6168 92.2759 61.3234C92.5715 60.9126 92.9262 60.4431 93.3991 59.8563C94.404 58.5066 95.7636 56.6287 97.4188 54.3988C100.847 49.7629 105.517 43.3665 111.429 36.9114C114.384 33.6838 117.34 30.691 120.237 28.285C123.133 25.8204 125.911 23.8838 128.394 22.4168C130.877 20.9497 132.946 19.8934 134.365 19.1305C135.724 18.4264 136.493 18.0156 136.493 17.9569Z" fill="#263238"/>
</g>
<defs>
<clipPath id="clip0_54_8272">
<rect width="180" height="196" fill="white" transform="matrix(-1 0 0 1 180 0)"/>
</clipPath>
</defs>
</svg>
